<svg id="cross" xmlns="http://www.w3.org/2000/svg" width="106.154" height="90.321" viewBox="0 0 106.154 90.321">
  <path id="Trazado_47" data-name="Trazado 47" d="M116.493,163.534H30.887A4.883,4.883,0,0,1,26,158.65V99.207a4.883,4.883,0,0,1,4.883-4.883h85.606a4.883,4.883,0,0,1,4.883,4.883V158.65A4.883,4.883,0,0,1,116.493,163.534Zm0,0" transform="translate(-20.612 -74.768)" fill="#ffeebe"/>
  <path id="Trazado_49" data-name="Trazado 49" d="M200.7,25.213H169.146a2.814,2.814,0,0,1-2.814-2.814V8.45A8.46,8.46,0,0,1,174.782,0h20.281a8.46,8.46,0,0,1,8.45,8.45V22.4A2.814,2.814,0,0,1,200.7,25.213Zm-28.74-5.627h25.926V8.45a2.826,2.826,0,0,0-2.822-2.822H174.782A2.826,2.826,0,0,0,171.96,8.45Zm0,0" transform="translate(-131.846)"/>
  <path id="Trazado_50" data-name="Trazado 50" d="M97.369,107.815H20.675A13.175,13.175,0,0,1,7.5,94.64V85.212a3.31,3.31,0,0,1,3.31-3.31h96.424a3.31,3.31,0,0,1,3.31,3.31V94.64A13.175,13.175,0,0,1,97.369,107.815Zm0,0" transform="translate(-5.945 -64.921)" fill="#ffeebe"/>
  <path id="Trazado_52" data-name="Trazado 52" d="M219.778,261.8h-8.955v-8.955a.517.517,0,0,0-.517-.517h-5.318a.517.517,0,0,0-.517.517V261.8h-8.955a.517.517,0,0,0-.517.517v5.318a.517.517,0,0,0,.517.517h8.955V277.1a.517.517,0,0,0,.517.517h5.318a.517.517,0,0,0,.517-.517v-8.955h8.955a.517.517,0,0,0,.517-.517v-5.318A.517.517,0,0,0,219.778,261.8Zm0,0" transform="translate(-154.57 -200.009)" fill="#f03613"/>
  <path id="Trazado_53" data-name="Trazado 53" d="M92.847,124.709a3.179,3.179,0,0,1-3.179-3.179V82.137h6.358V121.53A3.18,3.18,0,0,1,92.847,124.709Zm0,0" transform="translate(-71.077 -65.107)" fill="#a2eeeb"/>
  <path id="Trazado_54" data-name="Trazado 54" d="M84.867,195.16H75.155a1.811,1.811,0,0,1-1.811-1.811v-3.857a1.812,1.812,0,0,1,1.811-1.812h9.712a1.812,1.812,0,0,1,1.811,1.812v3.857A1.811,1.811,0,0,1,84.867,195.16Zm0,0" transform="translate(-58.137 -148.768)" fill="#a2eeeb"/>
  <path id="Trazado_55" data-name="Trazado 55" d="M390.847,124.709a3.179,3.179,0,0,1-3.179-3.179V82.137h6.358V121.53A3.18,3.18,0,0,1,390.847,124.709Zm0,0" transform="translate(-307.292 -65.107)" fill="#a2eeeb"/>
  <path id="Trazado_56" data-name="Trazado 56" d="M382.867,195.16h-9.712a1.811,1.811,0,0,1-1.811-1.811v-3.857a1.812,1.812,0,0,1,1.811-1.812h9.712a1.812,1.812,0,0,1,1.811,1.812v3.857A1.811,1.811,0,0,1,382.867,195.16Zm0,0" transform="translate(-294.352 -148.768)" fill="#a2eeeb"/>
  <g id="Grupo_35" data-name="Grupo 35" transform="translate(0 15.426)">
    <path id="Trazado_57" data-name="Trazado 57" d="M115.43,216.656a1.555,1.555,0,0,0-1.555,1.555v37.407a3.332,3.332,0,0,1-3.328,3.329H24.942a3.332,3.332,0,0,1-3.328-3.329V218.211a1.555,1.555,0,0,0-3.11,0v37.407a6.445,6.445,0,0,0,6.438,6.439h85.606a6.445,6.445,0,0,0,6.438-6.439V218.211A1.554,1.554,0,0,0,115.43,216.656Zm0,0" transform="translate(-14.667 -187.162)"/>
    <path id="Trazado_58" data-name="Trazado 58" d="M101.289,74.4H4.865A4.871,4.871,0,0,0,0,79.267v9.427a14.747,14.747,0,0,0,13.652,14.687v.177a3.369,3.369,0,0,0,3.366,3.366h.018V115.4a4.734,4.734,0,0,0,9.468,0v-8.476h.226a3.37,3.37,0,0,0,3.366-3.366v-.133h45.34v.133a3.369,3.369,0,0,0,3.366,3.366h.019V115.4a4.734,4.734,0,0,0,9.468,0v-8.476h.226a3.37,3.37,0,0,0,3.366-3.366v-.145a14.745,14.745,0,0,0,14.274-14.718V79.267A4.871,4.871,0,0,0,101.289,74.4ZM85.179,96.333H81.931V77.561h3.248Zm-61.785,0H20.146V77.561h3.248V96.333ZM3.11,88.695V79.267a1.757,1.757,0,0,1,1.755-1.755H17.036V96.333h-.019A3.37,3.37,0,0,0,13.652,99.7v.563A11.634,11.634,0,0,1,3.11,88.695Zm20.284,26.7a1.624,1.624,0,1,1-3.248,0v-8.476h3.248V115.4Zm3.592-11.841a.256.256,0,0,1-.256.256H17.017a.256.256,0,0,1-.256-.256V99.7a.257.257,0,0,1,.256-.257H26.73a.256.256,0,0,1,.256.257Zm3.11-3.243V99.7a3.37,3.37,0,0,0-3.366-3.367H26.5V77.512H78.821V96.333H78.8A3.37,3.37,0,0,0,75.437,99.7v.615ZM85.179,115.4a1.624,1.624,0,1,1-3.248,0v-8.476h3.248Zm3.592-11.841a.256.256,0,0,1-.256.256H78.8a.256.256,0,0,1-.256-.256V99.7a.257.257,0,0,1,.256-.257h9.712a.256.256,0,0,1,.256.257Zm14.274-14.863A11.633,11.633,0,0,1,91.881,100.3v-.6a3.37,3.37,0,0,0-3.366-3.367h-.226V77.512h13a1.757,1.757,0,0,1,1.755,1.755Zm0,0" transform="translate(0 -74.402)"/>
  </g>
</svg>
