<svg xmlns="http://www.w3.org/2000/svg" width="107.922" height="120.12" viewBox="0 0 107.922 120.12">
  <g id="beer" transform="translate(-25.995)">
    <g id="Grupo_37" data-name="Grupo 37" transform="translate(28.342 24.703)">
      <path id="Trazado_59" data-name="Trazado 59" d="M70.215,434.893l-32.586-8.732-1.481,5.526a5.226,5.226,0,0,0,4.009,6.157L51.17,440.8l11.014,2.951a5.226,5.226,0,0,0,6.55-3.328Z" transform="translate(-35.997 -350.883)" fill="#ffb714"/>
      <path id="Trazado_60" data-name="Trazado 60" d="M42.95,313.193l32.586,8.732L84.815,287.3l-32.587-8.732L42.95,313.193Zm27.211-11.265a6.5,6.5,0,1,1-4.6-7.961A6.5,6.5,0,0,1,70.161,301.928Z" transform="translate(-41.319 -237.915)" fill="#a2eeeb"/>
      <circle id="Elipse_9" data-name="Elipse 9" cx="6.5" cy="6.5" r="6.5" transform="translate(16.063 55.831)" fill="#f03613"/>
      <path id="Trazado_61" data-name="Trazado 61" d="M82.5,207.857l32.586,8.732c1.618-6.04-1.267-13.228-4.113-14.968.787-4.843,1.587-10.422,2.149-15.437H97.832c-1.508,3.6-3,7.363-4.287,10.768C90.209,197.035,84.116,201.817,82.5,207.857Z" transform="translate(-71.589 -167.206)" fill="#ffb714"/>
      <g id="Grupo_36" data-name="Grupo 36" transform="translate(26.243)">
        <path id="Trazado_62" data-name="Trazado 62" d="M147.857,124.271h15.288c.31-2.765.547-5.359.67-7.563a1.711,1.711,0,0,0,2.09-1.207l1.368-5.106a1.65,1.65,0,0,0-1.164-2.016l-11.3-3.028c-.875-.234-2.025.259-2.016,1.164l-1.368,5.106c-.469.813.3,1.847,1.207,2.09C151.168,116.6,149.5,120.343,147.857,124.271Z" transform="translate(-147.857 -105.294)" fill="#ffeebe"/>
        <path id="Trazado_63" data-name="Trazado 63" d="M284.652,116.708c.122,2.2.359,4.8.669,7.563h15.288c-1.644-3.928-3.311-7.67-4.773-10.56.906-.243,1.676-1.277,1.207-2.09l-1.368-5.106c.009-.905-1.141-1.4-2.016-1.164l-11.3,3.028a1.65,1.65,0,0,0-1.164,2.016l1.368,5.106A1.712,1.712,0,0,0,284.652,116.708Z" transform="translate(-249.869 -105.294)" fill="#ffeebe"/>
      </g>
      <path id="Trazado_64" data-name="Trazado 64" d="M306.326,186.182H291.037c.562,5.015,1.362,10.6,2.149,15.437-2.846,1.74-5.732,8.929-4.113,14.968l32.586-8.732c-1.618-6.04-7.711-10.822-11.046-10.906C309.322,193.545,307.834,189.785,306.326,186.182Z" transform="translate(-229.342 -167.205)" fill="#ffb714"/>
      <path id="Trazado_65" data-name="Trazado 65" d="M323.181,278.566,290.6,287.3l9.279,34.627,32.586-8.732-9.279-34.627Zm-17.932,23.362a6.5,6.5,0,1,1,7.961,4.6A6.5,6.5,0,0,1,305.249,301.928Z" transform="translate(-230.864 -237.915)" fill="#a2eeeb"/>
      <circle id="Elipse_10" data-name="Elipse 10" cx="6.5" cy="6.5" r="6.5" transform="translate(74.163 55.831)" fill="#f03613"/>
      <path id="Trazado_66" data-name="Trazado 66" d="M362.73,426.161l-32.586,8.732,1.481,5.526a5.226,5.226,0,0,0,6.55,3.328l11.014-2.951,11.014-2.951a5.225,5.225,0,0,0,4.008-6.157Z" transform="translate(-261.135 -350.883)" fill="#ffb714"/>
    </g>
    <path id="Trazado_67" data-name="Trazado 67" d="M73.444,98.461l-11.3-3.029a4.225,4.225,0,0,0-3.617.716,3.428,3.428,0,0,0-1.331,2.327l-1.252,4.673a3.489,3.489,0,0,0,0,2.732,4.006,4.006,0,0,0,.475.838c-1.2,2.491-2.561,5.563-3.992,8.981l0,.011c-1.251,2.986-2.552,6.234-3.838,9.588-4.383,1.189-9.972,6.319-11.6,12.386L26.226,177.837a7.558,7.558,0,0,0,5.667,9.03l22.028,5.9h0a8.368,8.368,0,0,0,2.165.287,7.951,7.951,0,0,0,3.606-.856,6.957,6.957,0,0,0,3.652-4.418l1.48-5.523v0L74.1,147.63c1.626-6.067-.65-13.3-3.851-16.526.806-5.078,1.477-9.986,1.951-14.225,0-.012,0-.024,0-.037.237-2.124.424-4.077.554-5.8a4.043,4.043,0,0,0,2.137-2.587l1.368-5.106A4,4,0,0,0,73.444,98.461ZM61.6,100.146l9.949,2.666-1.044,3.9-.055,0-.051,0q-.086.005-.17.016l-.058.008c-.056.009-.111.02-.167.033l-.048.011c-.067.017-.134.037-.2.061l-.063.025c-.044.017-.088.035-.13.054l-.078.038c-.037.019-.073.038-.109.058l-.075.044c-.037.023-.073.048-.109.073l-.062.044c-.048.036-.094.073-.138.112l-.021.018c-.053.047-.1.1-.152.149l-.029.033c-.037.041-.072.083-.107.127l-.04.055q-.042.057-.08.117l-.042.068c-.022.037-.043.075-.063.114s-.027.052-.04.078-.034.076-.049.114-.024.056-.035.085c-.021.057-.039.115-.055.174s-.035.142-.048.214c0,.015-.007.031-.01.046s0,.02,0,.031c-.01.071-.019.142-.023.212-.085,1.536-.234,3.34-.436,5.344H58.134c1.213-2.787,2.342-5.229,3.315-7.154.031-.061.058-.124.084-.189,0-.011.011-.023.015-.034s.008-.026.013-.039q.039-.107.067-.216c.015-.059.029-.119.039-.178.005-.029.008-.058.012-.087s.012-.086.015-.129c0-.027,0-.055,0-.082,0-.046,0-.092,0-.137,0-.024,0-.049,0-.073,0-.051-.006-.1-.012-.151,0-.019,0-.039-.007-.058-.008-.06-.019-.119-.031-.178,0-.01,0-.019-.006-.029q-.024-.106-.058-.209l0-.012c-.02-.061-.044-.121-.069-.18-.009-.022-.02-.043-.03-.064-.019-.041-.039-.082-.06-.122s-.027-.05-.042-.074-.042-.07-.065-.1-.032-.05-.05-.074-.053-.071-.081-.106c-.015-.019-.03-.04-.046-.059-.044-.052-.091-.1-.139-.149-.015-.015-.03-.028-.046-.042-.038-.035-.077-.07-.118-.1l-.053-.041c-.042-.033-.086-.064-.131-.093l-.049-.032-.044-.029ZM50.357,129.731a2.346,2.346,0,0,0,2.135-1.513c1.219-3.215,2.458-6.346,3.658-9.254H67.236c-.387,3.15-.867,6.594-1.42,10.151l-.574-.154a2.346,2.346,0,1,0-1.214,4.532l2.693.722c1.529,1.222,3.447,5.583,3.212,9.869L42.371,136.7C44.4,132.683,48.533,129.777,50.357,129.731ZM60.9,178.777l-28.055-7.517,8.064-30.095,28.054,7.517Zm-3.333,9.241a3.411,3.411,0,0,1-2.432.22l-22.028-5.9h0a2.922,2.922,0,0,1-2.35-3.284l.873-3.26,28.054,7.517-.873,3.26A2.325,2.325,0,0,1,57.568,188.018Z" transform="translate(0 -72.938)"/>
    <path id="Trazado_68" data-name="Trazado 68" d="M153.726,235.377l.055.015a2.346,2.346,0,0,0,1.209-4.534l-.055-.015a2.346,2.346,0,0,0-1.209,4.534Z" transform="translate(-96.43 -176.624)"/>
    <path id="Trazado_69" data-name="Trazado 69" d="M110.963,337.686a8.847,8.847,0,1,0,.884,6.712A8.788,8.788,0,0,0,110.963,337.686Zm-3.648,5.5a4.154,4.154,0,1,1-.415-3.152A4.157,4.157,0,0,1,107.314,343.184Z" transform="translate(-52.397 -255.075)"/>
    <path id="Trazado_70" data-name="Trazado 70" d="M321.308,177.837l-10.759-40.153c-1.626-6.067-7.215-11.2-11.6-12.386-1.286-3.354-2.587-6.6-3.838-9.588l0-.012c-1.432-3.418-2.8-6.49-3.993-8.981a4.015,4.015,0,0,0,.475-.838,3.49,3.49,0,0,0,0-2.732l-1.252-4.673a3.427,3.427,0,0,0-1.331-2.326,4.224,4.224,0,0,0-3.617-.716l-11.3,3.028a4,4,0,0,0-2.822,4.889l1.368,5.106a4.042,4.042,0,0,0,2.137,2.587c.13,1.722.317,3.675.553,5.8,0,.015,0,.03.005.045.473,4.237,1.144,9.143,1.95,14.22-3.2,3.221-5.476,10.459-3.851,16.526l10.759,40.153a6.956,6.956,0,0,0,3.652,4.418,7.948,7.948,0,0,0,3.606.856,8.356,8.356,0,0,0,2.165-.287l22.029-5.9h0a8.093,8.093,0,0,0,4.714-3.378A6.953,6.953,0,0,0,321.308,177.837ZM278.57,148.682l28.054-7.517,8.064,30.1-28.054,7.517Zm18.608-18.951c1.824.046,5.952,2.952,7.986,6.968L277.6,144.084c-.235-4.286,1.683-8.648,3.212-9.869l2.693-.721a2.346,2.346,0,1,0-1.214-4.532l-.574.154c-.552-3.558-1.033-7-1.42-10.151h11.087c1.2,2.908,2.439,6.039,3.658,9.254A2.346,2.346,0,0,0,297.178,129.731Zm-11.247-29.585,1.044,3.9-.044.029-.049.032q-.067.044-.13.093l-.054.042c-.04.033-.078.067-.116.1l-.047.043c-.048.047-.095.1-.138.148-.017.02-.033.041-.049.062s-.054.068-.079.1-.034.05-.051.076-.043.067-.064.1-.029.051-.043.076-.04.079-.059.119c-.01.022-.021.044-.03.066-.025.058-.047.117-.067.176l-.006.016c-.023.069-.042.138-.058.209,0,.011,0,.022-.006.032-.012.058-.023.116-.031.175,0,.02,0,.04-.007.06-.005.05-.009.1-.012.149,0,.024,0,.049,0,.074,0,.045,0,.091,0,.136,0,.028,0,.055,0,.083,0,.043.009.086.015.129s.007.058.012.087q.017.094.041.187c.017.065.038.13.061.194.006.017.011.035.017.052l.009.021c.027.069.057.137.09.2.973,1.924,2.1,4.365,3.314,7.152H279.77c-.2-2-.351-3.808-.436-5.344,0-.071-.012-.143-.023-.214,0-.01,0-.019,0-.029s-.007-.031-.01-.046c-.012-.069-.027-.137-.045-.2s-.037-.124-.059-.185c-.01-.027-.021-.053-.032-.079s-.034-.082-.053-.122-.025-.049-.037-.073c-.021-.041-.043-.081-.066-.12l-.039-.064q-.039-.062-.083-.12c-.013-.018-.026-.036-.039-.053-.033-.043-.068-.084-.1-.125l-.033-.038c-.047-.05-.1-.1-.147-.145-.018-.016-.037-.03-.055-.046-.033-.028-.066-.056-.1-.082s-.06-.043-.09-.064l-.074-.049c-.035-.022-.071-.044-.108-.064l-.061-.033c-.041-.021-.082-.042-.125-.061l-.039-.016a2.308,2.308,0,0,0-.445-.138l-.085-.017-.106-.015c-.04,0-.081-.009-.122-.011l-.084,0-.044,0-1.044-3.9Zm30.492,80.783a3.412,3.412,0,0,1-2,1.406h0l-22.028,5.9a3.41,3.41,0,0,1-2.432-.22,2.326,2.326,0,0,1-1.245-1.45l-.873-3.26,28.054-7.517.873,3.26A2.326,2.326,0,0,1,316.423,180.93Z" transform="translate(-187.624 -72.938)"/>
    <path id="Trazado_71" data-name="Trazado 71" d="M341.565,230.842l-.055.015a2.346,2.346,0,1,0,1.214,4.532l.055-.015a2.346,2.346,0,0,0-1.214-4.532Z" transform="translate(-240.161 -176.623)"/>
    <path id="Trazado_72" data-name="Trazado 72" d="M359.49,339.818a8.846,8.846,0,1,0-8.549,11.137h0a8.848,8.848,0,0,0,8.548-11.137Zm-4.947,4.366a4.127,4.127,0,0,1-2.522,1.935,4.169,4.169,0,0,1-1.079.143h0a4.155,4.155,0,1,1,3.6-2.078Z" transform="translate(-241.941 -255.075)"/>
    <path id="Trazado_73" data-name="Trazado 73" d="M248.342,0A2.346,2.346,0,0,0,246,2.346V8.625a2.346,2.346,0,1,0,4.692,0V2.346A2.346,2.346,0,0,0,248.342,0Z" transform="translate(-168.387)"/>
    <path id="Trazado_74" data-name="Trazado 74" d="M193.841,31.043a2.346,2.346,0,0,0,4.047-2.374l-3.19-5.438a2.346,2.346,0,1,0-4.047,2.374Z" transform="translate(-125.779 -16.893)"/>
    <path id="Trazado_75" data-name="Trazado 75" d="M289.223,31.88a2.345,2.345,0,0,0,3.211-.837l3.19-5.438a2.346,2.346,0,0,0-4.047-2.374l-3.19,5.438A2.346,2.346,0,0,0,289.223,31.88Z" transform="translate(-200.585 -16.894)"/>
  </g>
</svg>
