<svg xmlns="http://www.w3.org/2000/svg" width="97.269" height="97.269" viewBox="0 0 97.269 97.269">
  <g id="Grupo_100" data-name="Grupo 100" transform="translate(-358 -576)">
    <path id="Trazado_36" data-name="Trazado 36" d="M6.306,111.949h94.406v7.973H6.306Z" transform="translate(353.125 551.916)" fill="#a2eeeb"/>
    <path id="Trazado_37" data-name="Trazado 37" d="M90.108,6.306H16.91L6.306,26.313v9.069a9.441,9.441,0,0,0,18.882,0,9.44,9.44,0,0,0,18.881,0,9.441,9.441,0,0,0,18.882,0,9.44,9.44,0,1,0,18.881,0,9.441,9.441,0,0,0,18.882,0V26.313Z" transform="translate(353.125 571.125)" fill="#a2eeeb"/>
    <path id="Trazado_38" data-name="Trazado 38" d="M92.643,51.285A9.441,9.441,0,0,1,83.2,41.844a9.44,9.44,0,1,1-18.881,0,9.441,9.441,0,0,1-18.882,0,9.44,9.44,0,1,1-18.881,0A9.419,9.419,0,0,1,13.845,50.69V99.2h82.07V50.69a9.4,9.4,0,0,1-3.273.595Z" transform="translate(351.754 564.663)" fill="#feb72b"/>
    <path id="Trazado_39" data-name="Trazado 39" d="M27.253,62.79H51.686v40.22H27.253Z" transform="translate(349.316 560.854)" fill="#a2eeeb"/>
    <path id="Trazado_40" data-name="Trazado 40" d="M67.54,62.79H94.71V81.821H67.54Z" transform="translate(341.991 560.854)" fill="#a2eeeb"/>
    <g id="Grupo_32" data-name="Grupo 32" transform="translate(359.434 577.434)">
      <path id="Trazado_41" data-name="Trazado 41" d="M31.755,6.31l-6.57,20v9.065a9.438,9.438,0,1,1-18.875,0V26.314l10.6-20Z" transform="translate(-6.31 -6.31)" fill="#f95050"/>
      <path id="Trazado_42" data-name="Trazado 42" d="M90.59,6.31l6.57,20v9.065a9.438,9.438,0,1,0,18.875,0V26.314l-10.6-20Z" transform="translate(-21.635 -6.31)" fill="#f95050"/>
      <path id="Trazado_43" data-name="Trazado 43" d="M71.343,26.314v9.065a9.442,9.442,0,1,1-18.883,0V26.314l2.021-20H69.322Z" transform="translate(-14.702 -6.31)" fill="#f95050"/>
    </g>
    <g id="Grupo_33" data-name="Grupo 33" transform="translate(358 576)">
      <path id="Trazado_44" data-name="Trazado 44" d="M34.975,119.943H31.293a1.432,1.432,0,1,0,0,2.864h3.682a1.432,1.432,0,1,0,0-2.864Z" transform="translate(-9.158 -25.538)"/>
      <path id="Trazado_45" data-name="Trazado 45" d="M101.826,35.064V26c0-.02,0-.038-.006-.056a1.249,1.249,0,0,0-.016-.155c-.007-.044-.014-.088-.025-.132a1.338,1.338,0,0,0-.041-.131,1.417,1.417,0,0,0-.057-.142c-.009-.017-.013-.036-.022-.054L91.055,5.318a1.432,1.432,0,0,0-1.265-.761H70.809a1.432,1.432,0,0,0,0,2.864h3.1l5.627,17.143H63.927L62.2,7.421h2.33a1.432,1.432,0,1,0,0-2.864H16.592a1.432,1.432,0,0,0-1.265.761L4.723,25.325c-.009.018-.013.037-.022.054a1.421,1.421,0,0,0-.057.142c-.016.043-.029.087-.041.131a1.717,1.717,0,0,0-.04.287c0,.019-.006.037-.006.056v9.069a10.875,10.875,0,0,0,6.171,9.787v46.14H5.989a1.432,1.432,0,0,0-1.432,1.432v7.972a1.431,1.431,0,0,0,1.432,1.432H19.611a1.432,1.432,0,1,0,0-2.864H7.421V93.854H98.962v5.109H37.114a1.432,1.432,0,0,0,0,2.864h63.28a1.431,1.431,0,0,0,1.432-1.432V92.422a1.432,1.432,0,0,0-1.432-1.432H95.658V44.851a10.875,10.875,0,0,0,6.167-9.787Zm-2.864,0a8.009,8.009,0,1,1-16.018,0V27.427H98.962ZM26.3,27.427H42.319v7.637a8.009,8.009,0,1,1-16.018,0ZM44.186,7.421l-1.73,17.143H26.846L32.474,7.421Zm1,20.007H61.2v7.637a8.01,8.01,0,0,1-15.173,3.584,7.92,7.92,0,0,1-.845-3.584Zm18.882,0H80.081v7.637a8.01,8.01,0,0,1-15.206,3.518,7.924,7.924,0,0,1-.811-3.518ZM76.923,7.421H88.929l9.082,17.143H82.547ZM61.046,24.564H45.337L47.064,7.421H59.319ZM17.454,7.421H29.46L23.832,24.564H8.368ZM7.421,35.064V27.427H23.438v7.637a8.009,8.009,0,1,1-16.018,0ZM46.127,90.991H24.555V53.634H46.127Zm46.667,0h-43.8V52.2a1.432,1.432,0,0,0-1.432-1.432H23.125A1.432,1.432,0,0,0,21.694,52.2V90.991h-8.1V45.769a10.777,10.777,0,0,0,11.282-5.318,10.869,10.869,0,0,0,18.88,0,10.873,10.873,0,0,0,18.881,0,10.873,10.873,0,0,0,18.882,0A10.777,10.777,0,0,0,92.8,45.769Z" transform="translate(-4.557 -4.557)"/>
      <path id="Trazado_46" data-name="Trazado 46" d="M94.391,61.041H67.222a1.431,1.431,0,0,0-1.432,1.432V81.5a1.431,1.431,0,0,0,1.432,1.432h27.17A1.432,1.432,0,0,0,95.823,81.5V62.473A1.432,1.432,0,0,0,94.391,61.041Zm-1.43,19.03H68.654V63.9H92.961Z" transform="translate(-15.691 -14.828)"/>
    </g>
  </g>
</svg>
