<svg xmlns="http://www.w3.org/2000/svg" width="133.758" height="133.9" viewBox="0 0 133.758 133.9">
  <g id="Grupo_101" data-name="Grupo 101" transform="translate(-1334.393 -568.387)">
    <g id="pizza" transform="matrix(1.2, -0.259, 0.259, 1.19, 1322, 584)">
      <path id="Trazado_76" data-name="Trazado 76" d="M10.707,256a3.2,3.2,0,0,0-3.2,3.395,53.047,53.047,0,0,0,23.552,40.793,3.2,3.2,0,0,0,4.534-1.076L60.484,256Zm0,0" transform="translate(-5.899 -201.314)" fill="#ffb714"/>
      <path id="Trazado_77" data-name="Trazado 77" d="M187.194,299.116,162.3,256l-24.894,43.116a3.2,3.2,0,0,0,1.328,4.461,53.18,53.18,0,0,0,47.131,0A3.2,3.2,0,0,0,187.194,299.116Zm0,0" transform="translate(-107.716 -201.314)" fill="#ffb714"/>
      <path id="Trazado_78" data-name="Trazado 78" d="M35.594,48.266a3.2,3.2,0,0,0-4.534-1.076A53.047,53.047,0,0,0,7.507,87.982a3.2,3.2,0,0,0,3.2,3.394H60.484Zm0,0" transform="translate(-5.899 -36.691)" fill="#ffb714"/>
      <path id="Trazado_79" data-name="Trazado 79" d="M185.867,13.006a53.187,53.187,0,0,0-47.131,0,3.2,3.2,0,0,0-1.328,4.461L162.3,60.584l24.893-43.116A3.2,3.2,0,0,0,185.867,13.006Zm0,0" transform="translate(-107.716 -5.898)" fill="#ffb714"/>
      <path id="Trazado_80" data-name="Trazado 80" d="M308.508,87.982a53.047,53.047,0,0,0-23.553-40.793,3.2,3.2,0,0,0-4.534,1.076l-24.89,43.111h21.575v10.694a3.959,3.959,0,0,0,3.959,3.959h.1a4.084,4.084,0,0,0,4.1-4.08V100.48a2.542,2.542,0,0,1,5.084,0V111.9a3.112,3.112,0,1,0,6.225,0V91.377h8.732A3.2,3.2,0,0,0,308.508,87.982Zm0,0" transform="translate(-200.946 -36.691)" fill="#ffb714"/>
      <path id="Trazado_81" data-name="Trazado 81" d="M47.009,256c0,2.648-.617,5.317-.176,7.839.455,2.593,1.955,4.891,2.835,7.31.9,2.462,1.232,5.183,2.527,7.422,1.308,2.259,3.5,3.905,5.173,5.892s2.916,4.439,4.909,6.113,4.609,2.471,6.868,3.778L91.289,256Zm0,0" transform="translate(-36.704 -201.314)" fill="#ffe082"/>
      <path id="Trazado_83" data-name="Trazado 83" d="M151.867,294.354c2.23,1.288,4.238,3.173,6.7,4.07,2.419.88,5.156.736,7.749,1.191,2.522.441,5.043,1.52,7.692,1.52s5.169-1.078,7.691-1.52c2.593-.455,5.33-.31,7.749-1.191,2.462-.9,4.463-2.775,6.7-4.07h0L174.012,256Zm0,0" transform="translate(-119.426 -201.314)" fill="#ffe082"/>
      <path id="Trazado_85" data-name="Trazado 85" d="M69.144,76.453c-2.259,1.308-4.881,2.109-6.868,3.778s-3.235,4.12-4.909,6.114-3.865,3.632-5.173,5.892c-1.3,2.238-1.63,4.96-2.527,7.421-.881,2.419-2.381,4.716-2.835,7.31-.441,2.522.176,5.19.176,7.839h44.28Zm0,0" transform="translate(-36.704 -60.122)" fill="#ffe082"/>
      <path id="Trazado_87" data-name="Trazado 87" d="M189.452,47.425c-2.419-.88-5.156-.736-7.749-1.191-2.522-.441-5.043-1.52-7.692-1.52s-5.169,1.078-7.691,1.52c-2.593.455-5.33.31-7.749,1.191-2.292.834-3.888,2.338-6.7,4.07l22.144,38.354,22.143-38.354C193.924,50.206,191.917,48.322,189.452,47.425Zm0,0" transform="translate(-119.426 -35.163)" fill="#ffe082"/>
      <path id="Trazado_89" data-name="Trazado 89" d="M296.576,114.807h3.235c0-2.649.617-5.317.176-7.839-.455-2.593-1.955-4.891-2.835-7.31-.9-2.462-1.232-5.184-2.527-7.422-1.308-2.259-3.5-3.905-5.173-5.892s-2.916-4.439-4.909-6.113-4.609-2.471-6.868-3.778l-22.143,38.354h21.575V125.5a3.959,3.959,0,0,0,3.959,3.959h.1a4.084,4.084,0,0,0,4.1-4.08V123.91a2.542,2.542,0,0,1,5.083,0v11.419a3.113,3.113,0,0,0,6.226,0Zm0,0" transform="translate(-200.946 -60.122)" fill="#ffe082"/>
      <path id="Trazado_91" data-name="Trazado 91" d="M216.19,376.749a6.351,6.351,0,1,1-6.351-6.351A6.351,6.351,0,0,1,216.19,376.749Zm0,0" transform="translate(-160.02 -291.276)" fill="#f03613"/>
      <path id="Trazado_92" data-name="Trazado 92" d="M123.5,329.608a6.35,6.35,0,1,1-6.351-6.35A6.351,6.351,0,0,1,123.5,329.608Zm0,0" transform="translate(-87.132 -254.205)" fill="#f03613"/>
      <path id="Trazado_93" data-name="Trazado 93" d="M147.964,176.476a6.351,6.351,0,1,1-6.351-6.351A6.351,6.351,0,0,1,147.964,176.476Zm0,0" transform="translate(-106.368 -133.784)" fill="#f03613"/>
      <path id="Trazado_94" data-name="Trazado 94" d="M210.385,75.738a6.35,6.35,0,1,1-6.351-6.351A6.351,6.351,0,0,1,210.385,75.738Zm0,0" transform="translate(-155.456 -54.565)" fill="#f03613"/>
      <g id="Grupo_38" data-name="Grupo 38" transform="translate(15.827 16.332)">
        <path id="Trazado_95" data-name="Trazado 95" d="M364.351,124.226a3.175,3.175,0,1,1-3.175-3.175A3.175,3.175,0,0,1,364.351,124.226Zm0,0" transform="translate(-297.353 -111.524)" fill="#ffb714"/>
        <path id="Trazado_96" data-name="Trazado 96" d="M316.515,201.425a3.175,3.175,0,1,1-3.176-3.175A3.176,3.176,0,0,1,316.515,201.425Zm0,0" transform="translate(-259.736 -172.232)" fill="#ffa000"/>
        <path id="Trazado_97" data-name="Trazado 97" d="M299.074,79.629a3.175,3.175,0,1,1-3.175-3.176A3.175,3.175,0,0,1,299.074,79.629Zm0,0" transform="translate(-246.02 -76.453)" fill="#ffb714"/>
        <path id="Trazado_98" data-name="Trazado 98" d="M247.015,161.874a3.175,3.175,0,1,1-3.176-3.175A3.176,3.176,0,0,1,247.015,161.874Zm0,0" transform="translate(-205.082 -141.13)" fill="#ffb714"/>
        <path id="Trazado_99" data-name="Trazado 99" d="M80.445,207.425a3.175,3.175,0,1,1-3.175-3.175A3.176,3.176,0,0,1,80.445,207.425Zm0,0" transform="translate(-74.094 -176.951)" fill="#ffb714"/>
        <path id="Trazado_100" data-name="Trazado 100" d="M165.816,277.938a3.175,3.175,0,1,1-3.175-3.176A3.176,3.176,0,0,1,165.816,277.938Zm0,0" transform="translate(-141.228 -232.4)" fill="#ffb714"/>
        <path id="Trazado_101" data-name="Trazado 101" d="M131.874,116.262a3.175,3.175,0,1,0-2.157,3.939A3.175,3.175,0,0,0,131.874,116.262Zm0,0" transform="translate(-114.637 -105.961)" fill="#ffb714"/>
        <path id="Trazado_102" data-name="Trazado 102" d="M85.8,288.906a3.175,3.175,0,1,1-3.176-3.175A3.176,3.176,0,0,1,85.8,288.906Zm0,0" transform="translate(-78.305 -241.026)" fill="#ffb714"/>
        <path id="Trazado_103" data-name="Trazado 103" d="M295.159,403.3a3.175,3.175,0,1,1-3.175-3.175A3.175,3.175,0,0,1,295.159,403.3Zm0,0" transform="translate(-242.942 -330.987)" fill="#ffa000"/>
        <path id="Trazado_104" data-name="Trazado 104" d="M247.015,318.633a3.175,3.175,0,1,1-3.176-3.176A3.176,3.176,0,0,1,247.015,318.633Zm0,0" transform="translate(-205.082 -264.402)" fill="#ffa000"/>
      </g>
      <path id="Trazado_105" data-name="Trazado 105" d="M381.1,178.476a6.35,6.35,0,1,1-6.351-6.351A6.351,6.351,0,0,1,381.1,178.476Zm0,0" transform="translate(-289.706 -135.356)" fill="#f03613"/>
      <path id="Trazado_111" data-name="Trazado 111" d="M211.894,370.852a7.953,7.953,0,1,0-7.953,7.952A7.962,7.962,0,0,0,211.894,370.852Zm-12.7,0a4.749,4.749,0,1,1,4.749,4.748A4.754,4.754,0,0,1,199.193,370.852Zm0,0" transform="translate(-154.122 -285.378)"/>
      <path id="Trazado_112" data-name="Trazado 112" d="M111.253,315.758a7.953,7.953,0,1,0,7.953,7.952A7.961,7.961,0,0,0,111.253,315.758Zm0,12.7A4.748,4.748,0,1,1,116,323.71,4.754,4.754,0,0,1,111.253,328.459Zm0,0" transform="translate(-81.234 -248.307)"/>
      <path id="Trazado_113" data-name="Trazado 113" d="M135.715,162.625a7.953,7.953,0,1,0,7.952,7.953A7.962,7.962,0,0,0,135.715,162.625Zm0,12.7a4.749,4.749,0,1,1,4.748-4.749A4.754,4.754,0,0,1,135.715,175.327Zm0,0" transform="translate(-100.47 -127.886)"/>
      <path id="Trazado_114" data-name="Trazado 114" d="M206.089,69.84a7.953,7.953,0,1,0-7.953,7.953A7.962,7.962,0,0,0,206.089,69.84Zm-12.7,0a4.749,4.749,0,1,1,4.749,4.749A4.754,4.754,0,0,1,193.387,69.84Zm0,0" transform="translate(-149.558 -48.667)"/>
      <path id="Trazado_115" data-name="Trazado 115" d="M360.055,118.328a4.778,4.778,0,1,0-4.777,4.777A4.782,4.782,0,0,0,360.055,118.328Zm-6.351,0a1.573,1.573,0,1,1,1.574,1.573A1.575,1.575,0,0,1,353.7,118.328Zm0,0" transform="translate(-275.628 -89.295)"/>
      <path id="Trazado_116" data-name="Trazado 116" d="M307.441,190.75a4.778,4.778,0,1,0,4.778,4.777A4.782,4.782,0,0,0,307.441,190.75Zm0,6.351a1.573,1.573,0,1,1,1.574-1.574A1.575,1.575,0,0,1,307.441,197.1Zm0,0" transform="translate(-238.011 -150.003)"/>
      <path id="Trazado_117" data-name="Trazado 117" d="M290,78.508a4.778,4.778,0,1,0-4.777-4.777A4.782,4.782,0,0,0,290,78.508Zm0-6.351a1.573,1.573,0,1,1-1.573,1.574A1.575,1.575,0,0,1,290,72.157Zm0,0" transform="translate(-224.298 -54.224)"/>
      <path id="Trazado_118" data-name="Trazado 118" d="M233.164,155.976a4.778,4.778,0,1,0,4.778-4.777A4.784,4.784,0,0,0,233.164,155.976Zm6.351,0a1.573,1.573,0,1,1-1.574-1.573A1.575,1.575,0,0,1,239.515,155.976Zm0,0" transform="translate(-183.357 -118.901)"/>
      <path id="Trazado_119" data-name="Trazado 119" d="M71.375,196.75a4.778,4.778,0,1,0,4.777,4.777A4.782,4.782,0,0,0,71.375,196.75Zm0,6.351a1.573,1.573,0,1,1,1.573-1.574A1.575,1.575,0,0,1,71.375,203.1Zm0,0" transform="translate(-52.372 -154.721)"/>
      <path id="Trazado_120" data-name="Trazado 120" d="M156.743,276.817a4.778,4.778,0,1,0-4.778-4.777A4.782,4.782,0,0,0,156.743,276.817Zm0-6.351a1.573,1.573,0,1,1-1.574,1.574A1.575,1.575,0,0,1,156.743,270.466Zm0,0" transform="translate(-119.503 -210.17)"/>
      <path id="Trazado_121" data-name="Trazado 121" d="M122.933,116.03a4.785,4.785,0,1,0-2.289-.59A4.784,4.784,0,0,0,122.933,116.03Zm-.435-6.29a1.585,1.585,0,0,1,.443-.064,1.577,1.577,0,1,1-.443.064Zm0,0" transform="translate(-92.921 -83.727)"/>
      <path id="Trazado_122" data-name="Trazado 122" d="M81.5,283.008a4.778,4.778,0,1,0-4.778,4.778A4.783,4.783,0,0,0,81.5,283.008Zm-4.778,1.573a1.573,1.573,0,1,1,1.574-1.573A1.575,1.575,0,0,1,76.726,284.581Zm0,0" transform="translate(-56.58 -218.796)"/>
      <path id="Trazado_123" data-name="Trazado 123" d="M286.086,402.183a4.777,4.777,0,1,0-4.777-4.777A4.782,4.782,0,0,0,286.086,402.183Zm0-6.35a1.573,1.573,0,1,1-1.573,1.573A1.575,1.575,0,0,1,286.086,395.833Zm0,0" transform="translate(-221.217 -308.757)"/>
      <path id="Trazado_124" data-name="Trazado 124" d="M237.941,317.515a4.777,4.777,0,1,0-4.777-4.777A4.783,4.783,0,0,0,237.941,317.515Zm0-6.351a1.573,1.573,0,1,1-1.573,1.574A1.575,1.575,0,0,1,237.941,311.164Zm0,0" transform="translate(-183.357 -242.176)"/>
      <path id="Trazado_125" data-name="Trazado 125" d="M368.855,164.625a7.953,7.953,0,1,0,7.953,7.953A7.962,7.962,0,0,0,368.855,164.625Zm0,12.7a4.749,4.749,0,1,1,4.749-4.749A4.753,4.753,0,0,1,368.855,177.327Zm0,0" transform="translate(-283.808 -129.459)"/>
      <path id="Trazado_126" data-name="Trazado 126" d="M109.161,51.19A54.7,54.7,0,0,0,84.9,9.165a4.79,4.79,0,0,0-3.628-.7,4.779,4.779,0,0,0-2.407-2.8,54.783,54.783,0,0,0-48.556,0A4.783,4.783,0,0,0,27.9,8.47a4.792,4.792,0,0,0-3.629.7A54.7,54.7,0,0,0,.009,51.19a4.81,4.81,0,0,0,1.216,3.5,4.806,4.806,0,0,0-1.216,3.5,54.7,54.7,0,0,0,24.263,42.025,4.776,4.776,0,0,0,3.628.7,4.783,4.783,0,0,0,2.407,2.8,54.785,54.785,0,0,0,48.555,0,4.8,4.8,0,0,0,2-6.7L57.36,56.288h17.2V65.38A5.556,5.556,0,0,0,80.22,70.94a5.7,5.7,0,0,0,5.7-5.683V63.789a.94.94,0,1,1,1.879,0V75.208a4.715,4.715,0,0,0,9.43,0V56.288h7.129A4.808,4.808,0,0,0,109.161,51.19ZM26.6,88.035c-1.786-1.5-2.991-3.868-4.713-5.917s-3.84-3.638-5.012-5.664c-1.16-2-1.488-4.639-2.408-7.168-.908-2.493-2.355-4.709-2.762-7.038a26.469,26.469,0,0,1,.141-5.96H51.81L31.825,90.9A25.993,25.993,0,0,1,26.6,88.035Zm-14.9-40.912c.407-2.329,1.854-4.544,2.762-7.038.921-2.532,1.248-5.163,2.408-7.168,1.172-2.026,3.294-3.619,5.012-5.664s2.926-4.416,4.713-5.917a26,26,0,0,1,5.223-2.867l8.43,14.6a1.6,1.6,0,1,0,2.775-1.6L34.6,16.864a25.612,25.612,0,0,1,5.093-3.1c2.164-.788,4.815-.652,7.477-1.117,2.6-.456,5.033-1.5,7.415-1.5S59.4,12.194,62,12.65c2.663.466,5.315.33,7.477,1.117a25.644,25.644,0,0,1,5.093,3.1L54.584,51.481,46.77,37.945a1.6,1.6,0,1,0-2.775,1.6L51.81,53.084H11.85A26.423,26.423,0,0,1,11.708,47.123ZM31.732,8.543a51.582,51.582,0,0,1,45.706,0,1.593,1.593,0,0,1,.653,2.225l-1.913,3.314a25.72,25.72,0,0,0-5.6-3.325c-2.669-.971-5.5-.822-8.021-1.263C60.112,9.067,57.5,7.95,54.584,7.95s-5.528,1.117-7.967,1.544c-2.516.441-5.352.291-8.021,1.263a25.7,25.7,0,0,0-5.6,3.325L31.08,10.77v0A1.593,1.593,0,0,1,31.732,8.543ZM3.207,51.391A51.776,51.776,0,0,1,26.05,11.831a1.594,1.594,0,0,1,2.257.545l1.913,3.313a26.034,26.034,0,0,0-5.678,3.2c-2.2,1.846-3.483,4.378-5.106,6.31s-3.891,3.629-5.332,6.12c-1.429,2.469-1.776,5.286-2.645,7.676-.854,2.345-2.407,4.723-2.908,7.582a26.346,26.346,0,0,0,.086,6.513H4.808A1.6,1.6,0,0,1,3.207,51.391ZM26.05,97.54A51.773,51.773,0,0,1,3.207,57.979a1.6,1.6,0,0,1,1.6-1.691H8.637A26.348,26.348,0,0,0,8.551,62.8c.5,2.859,2.054,5.238,2.908,7.582.869,2.389,1.217,5.207,2.645,7.676,1.441,2.49,3.715,4.194,5.333,6.121s2.909,4.464,5.106,6.309a25.985,25.985,0,0,0,5.677,3.2l-1.913,3.312A1.592,1.592,0,0,1,26.05,97.54Zm51.388,3.289a51.582,51.582,0,0,1-45.706,0,1.593,1.593,0,0,1-.653-2.225l1.913-3.314a25.72,25.72,0,0,0,5.6,3.325,1.6,1.6,0,0,0,1.1-3.011,25.587,25.587,0,0,1-5.093-3.1L54.584,57.89,74.571,92.506a25.611,25.611,0,0,1-5.093,3.1c-2.164.788-4.815.651-7.477,1.117-2.6.456-5.033,1.5-7.416,1.5-2.54,0-5.034-1.161-8.021-1.593A1.6,1.6,0,1,0,46.1,99.8c2.761.4,5.394,1.625,8.48,1.625,2.917,0,5.527-1.116,7.968-1.544,2.515-.441,5.351-.291,8.021-1.263a25.667,25.667,0,0,0,5.6-3.325L78.09,98.6A1.593,1.593,0,0,1,77.438,100.828ZM95.629,53.084a1.6,1.6,0,0,0-1.6,1.6V75.208a1.51,1.51,0,0,1-3.021,0V63.789a4.144,4.144,0,0,0-8.288,0v1.469a2.493,2.493,0,0,1-2.6,2.478,2.355,2.355,0,0,1-2.356-2.356V56.288H89.878a1.6,1.6,0,1,0,0-3.2H57.36L77.344,18.47a25.969,25.969,0,0,1,5.223,2.866c1.787,1.5,2.991,3.867,4.713,5.917s3.84,3.637,5.012,5.664c1.16,2,1.487,4.639,2.408,7.168.908,2.493,2.354,4.709,2.762,7.038a26.424,26.424,0,0,1-.142,5.96Zm8.732,0h-3.828a26.348,26.348,0,0,0,.086-6.513c-.5-2.859-2.054-5.238-2.908-7.582-.869-2.388-1.217-5.208-2.645-7.676-1.441-2.491-3.716-4.2-5.333-6.121s-2.909-4.464-5.105-6.309a26.04,26.04,0,0,0-5.678-3.2l1.913-3.313a1.594,1.594,0,0,1,2.257-.545,51.776,51.776,0,0,1,22.843,39.561A1.6,1.6,0,0,1,104.361,53.084Zm0,0" transform="translate(0)"/>
    </g>
  </g>
</svg>
