<svg xmlns="http://www.w3.org/2000/svg" width="156.03" height="42.609" viewBox="0 0 156.03 42.609">
  <g id="Grupo_18" data-name="Grupo 18" transform="translate(-472.776 -844.1)">
    <g id="Grupo_15" data-name="Grupo 15" transform="translate(472.776 844.1)">
      <path id="Trazado_21" data-name="Trazado 21" d="M482.082,854.655a10.612,10.612,0,0,1,.84-4.265,10.135,10.135,0,0,1,2.3-3.339,10.431,10.431,0,0,1,3.447-2.176,11.716,11.716,0,0,1,4.308-.776,10.855,10.855,0,0,1,3.684.625,9.729,9.729,0,0,1,3.059,1.745,8.234,8.234,0,0,1,2.089,2.736,8.108,8.108,0,0,1,.775,3.555,9.948,9.948,0,0,1-.474,3.037,8.207,8.207,0,0,1-1.379,2.628,7.2,7.2,0,0,1-2.2,1.853,5.892,5.892,0,0,1-2.887.711,4.9,4.9,0,0,1-2.477-.582,4.5,4.5,0,0,1-1.573-1.443,4.244,4.244,0,0,1-.668-1.917,4.688,4.688,0,0,1,.237-2.046,9.845,9.845,0,0,0,4.157-.711,2.424,2.424,0,0,0,1.487-2.348,2.711,2.711,0,0,0-.948-2.154,3.626,3.626,0,0,0-2.456-.819,4.762,4.762,0,0,0-2.068.431,4.341,4.341,0,0,0-1.508,1.163,4.932,4.932,0,0,0-.9,1.723,7.209,7.209,0,0,0-.3,2.111,7.58,7.58,0,0,0,.624,3.124,13.968,13.968,0,0,0,1.572,2.671q.947,1.271,2.047,2.5a26.582,26.582,0,0,1,2.025,2.563,14.688,14.688,0,0,1,1.551,2.887,8.752,8.752,0,0,1,.582,3.49,9.926,9.926,0,0,1-.991,4.222,10.551,10.551,0,0,1-2.585,3.361,12.224,12.224,0,0,1-3.9,2.24,14.4,14.4,0,0,1-4.933.819,13.876,13.876,0,0,1-4.8-.8,11.983,11.983,0,0,1-3.748-2.154,9.544,9.544,0,0,1-2.434-3.188,9.046,9.046,0,0,1-.862-3.9,9.152,9.152,0,0,1,.474-2.951,7.785,7.785,0,0,1,1.314-2.434,6.374,6.374,0,0,1,1.982-1.637,5.138,5.138,0,0,1,2.434-.6,4.285,4.285,0,0,1,2.994,1.077,3.375,3.375,0,0,1,1.185,2.585,1.686,1.686,0,0,0-1.551.883,3.012,3.012,0,0,0-.388,1.939,3.429,3.429,0,0,0,.948,1.939,3.248,3.248,0,0,0,2.5.883,4.06,4.06,0,0,0,2.865-1.013,3.239,3.239,0,0,0,1.1-2.477,5.017,5.017,0,0,0-.5-2.047,26.142,26.142,0,0,0-1.206-2.326q-.711-1.228-1.572-2.563a28.783,28.783,0,0,1-1.573-2.757,21.121,21.121,0,0,1-1.207-2.951A10.067,10.067,0,0,1,482.082,854.655Z" transform="translate(-472.776 -844.1)" fill="#ffb714"/>
      <path id="Trazado_22" data-name="Trazado 22" d="M577.835,897.255a20.066,20.066,0,0,0-.862,1.874,14.494,14.494,0,0,0-.646,2.068,12.863,12.863,0,0,0-.172,4.976,3.412,3.412,0,0,1-1.379,1.615,3.88,3.88,0,0,1-2.025.539,5.169,5.169,0,0,1-1.788-.323,4.487,4.487,0,0,1-1.594-1.013,5.293,5.293,0,0,1-1.163-1.745,6.369,6.369,0,0,1-.452-2.52,7.831,7.831,0,0,1,.431-2.607,15.991,15.991,0,0,1,1.056-2.37q.624-1.141,1.314-2.262a23.865,23.865,0,0,0,1.25-2.3,12.624,12.624,0,0,0,.862-2.434,7.109,7.109,0,0,0,.086-2.714,3.876,3.876,0,0,1,1.594-.948,5.982,5.982,0,0,1,1.81-.3,4.279,4.279,0,0,1,2.477.754,3.373,3.373,0,0,1,1.4,2.176,15.565,15.565,0,0,1,3.1-1.81,8.2,8.2,0,0,1,3.283-.689,6.715,6.715,0,0,1,2.318.388,5.946,5.946,0,0,1,1.842,1.056,4.966,4.966,0,0,1,1.235,1.594,4.493,4.493,0,0,1,.455,2,6.052,6.052,0,0,1-.48,2.326q-.481,1.163-1.027,2.262t-1.027,2.09a4.2,4.2,0,0,0-.481,1.809,2.144,2.144,0,0,0,.474,1.4,1.488,1.488,0,0,0,1.207.582,1.9,1.9,0,0,0,1.206-.5,7.573,7.573,0,0,0,1.206-1.292,16.03,16.03,0,0,0,1.163-1.788q.56-.991,1.12-2.025h2.628q-.69,1.767-1.551,3.727a20.972,20.972,0,0,1-2.025,3.619,10.94,10.94,0,0,1-2.757,2.757,6.37,6.37,0,0,1-3.705,1.1,6.115,6.115,0,0,1-4.459-1.616,5.821,5.821,0,0,1-1.659-4.373,7.836,7.836,0,0,1,.474-2.8,18.682,18.682,0,0,1,1.034-2.283q.56-1.034,1.034-1.917a3.535,3.535,0,0,0,.474-1.659,1.789,1.789,0,0,0-.431-1.25,1.5,1.5,0,0,0-1.163-.474,4.621,4.621,0,0,0-2.736,1.4A13.531,13.531,0,0,0,577.835,897.255Z" transform="translate(-541.774 -875.11)" fill="#ffb714"/>
      <path id="Trazado_23" data-name="Trazado 23" d="M679.232,886.873a7.481,7.481,0,0,1,3.253.668,6.875,6.875,0,0,1,2.176,1.53,3.411,3.411,0,0,0,.258-.9.8.8,0,0,0-.129-.6,2.972,2.972,0,0,1,1.486-.991,5.79,5.79,0,0,1,1.616-.258,3.955,3.955,0,0,1,1.745.366,3.672,3.672,0,0,1,1.249.969,4.4,4.4,0,0,1,.754,1.336,4.258,4.258,0,0,1,.259,1.422,4.543,4.543,0,0,1-.6,2.154q-.6,1.121-1.357,2.262t-1.357,2.219a4.169,4.169,0,0,0-.6,2.025,3.294,3.294,0,0,0,.409,1.637,1.431,1.431,0,0,0,1.357.732,3.359,3.359,0,0,0,2.434-1.293,16.876,16.876,0,0,0,2.3-3.36h2.628q-.69,1.767-1.551,3.727a20.182,20.182,0,0,1-2.047,3.619,11.267,11.267,0,0,1-2.779,2.757,6.37,6.37,0,0,1-3.705,1.1,5.553,5.553,0,0,1-3.705-1.271,6.3,6.3,0,0,1-2.025-3.555,12.111,12.111,0,0,1-3.145,2.929,7.02,7.02,0,0,1-3.834,1.12,5.781,5.781,0,0,1-2.628-.6,6.737,6.737,0,0,1-2.089-1.615,7.13,7.13,0,0,1-1.357-2.37,8.767,8.767,0,0,1-.474-2.908,12.866,12.866,0,0,1,.969-5,13.9,13.9,0,0,1,2.563-4.071,12.18,12.18,0,0,1,3.662-2.757A9.594,9.594,0,0,1,679.232,886.873Zm-3.188,14.562a3.175,3.175,0,0,0,2.046-.8,10.11,10.11,0,0,0,1.81-1.982,21.051,21.051,0,0,0,1.529-2.52q.689-1.335,1.163-2.413.129-.344.258-.668a4.992,4.992,0,0,1,.3-.625,2.17,2.17,0,0,0-1.185-1.228,3.755,3.755,0,0,0-3.985.474A9.062,9.062,0,0,0,676,893.745a10.719,10.719,0,0,0-1.357,2.649,7.922,7.922,0,0,0-.5,2.585,2.458,2.458,0,0,0,.625,1.874A1.872,1.872,0,0,0,676.044,901.435Z" transform="translate(-614.435 -874.767)" fill="#ffb714"/>
      <path id="Trazado_24" data-name="Trazado 24" d="M787.477,890.837a10.952,10.952,0,0,1-.862,3.791q-.862,2.241-2.111,4.739t-2.628,5.084q-1.379,2.585-2.391,4.782a22.987,22.987,0,0,0-1.422,3.791q-.41,1.593.28,2.2a1.263,1.263,0,0,1-.3.775,2.923,2.923,0,0,1-.8.689,4.893,4.893,0,0,1-1.142.5,4.619,4.619,0,0,1-1.335.194,3.531,3.531,0,0,1-2.693-1.185,4.234,4.234,0,0,1-1.1-2.994,6.487,6.487,0,0,1,.409-2.327,11.673,11.673,0,0,1,1.1-2.154q.689-1.077,1.53-2.2t1.745-2.5a14.035,14.035,0,0,1-2.736,2.348,6.128,6.128,0,0,1-3.425.969,5.541,5.541,0,0,1-2.305-.517,6.39,6.39,0,0,1-2.046-1.486,7.515,7.515,0,0,1-1.465-2.37,8.352,8.352,0,0,1-.56-3.124,12,12,0,0,1,1.056-4.976,14.269,14.269,0,0,1,2.736-4.093,13,13,0,0,1,3.813-2.757A9.919,9.919,0,0,1,775.112,887a8.611,8.611,0,0,1,2.693.431,7.35,7.35,0,0,1,2.477,1.422v-1.292a2.97,2.97,0,0,1,1.486-.991,5.79,5.79,0,0,1,1.616-.258,3.4,3.4,0,0,1,1.573.388,4.549,4.549,0,0,1,1.314,1.012,4.78,4.78,0,0,1,.883,1.443A4.542,4.542,0,0,1,787.477,890.837Zm-15.553,10.6a3.466,3.466,0,0,0,2.391-1.077,12.835,12.835,0,0,0,2.068-2.564,29.236,29.236,0,0,0,1.637-2.994q.711-1.508,1.1-2.37a2.17,2.17,0,0,0-1.185-1.228,3.966,3.966,0,0,0-1.573-.366,4.033,4.033,0,0,0-2.434.84,8.853,8.853,0,0,0-2,2.068,11.307,11.307,0,0,0-1.379,2.649,7.634,7.634,0,0,0-.517,2.585,2.458,2.458,0,0,0,.625,1.874A1.872,1.872,0,0,0,771.924,901.435Z" transform="translate(-683.777 -874.767)" fill="#ffb714"/>
      <path id="Trazado_25" data-name="Trazado 25" d="M861.566,890.363a5.343,5.343,0,0,1-.625,2.434q-.625,1.228-1.379,2.434t-1.379,2.326a4.424,4.424,0,0,0-.625,2.154,1.7,1.7,0,0,0,.452,1.292,1.646,1.646,0,0,0,1.185.431,2.458,2.458,0,0,0,1.4-.539,8.327,8.327,0,0,0,1.573-1.551,17.188,17.188,0,0,0,1.637-2.5,27.84,27.84,0,0,0,1.551-3.382,22.4,22.4,0,0,1,1.594-3.641,18.673,18.673,0,0,1,1.335-2.132,3.482,3.482,0,0,1,1.422-1.056,4.646,4.646,0,0,1,1.723-.323,4.883,4.883,0,0,1,1.508.237,4.254,4.254,0,0,1,1.314.689,3.59,3.59,0,0,1,.948,1.12,3.045,3.045,0,0,1,.366,1.486,23.646,23.646,0,0,0-1.4,2.068q-.8,1.292-1.529,2.779a26.073,26.073,0,0,0-1.25,2.973,9.173,9.173,0,0,0-.56,2.607,2.74,2.74,0,0,0,.3,1.465,1.249,1.249,0,0,0,1.206.646,2.476,2.476,0,0,0,1.422-.474,6.716,6.716,0,0,0,1.336-1.25,13.959,13.959,0,0,0,1.25-1.788q.6-1.012,1.206-2.09h2.628q-.69,1.767-1.4,3.727a20.949,20.949,0,0,1-1.7,3.619,9.768,9.768,0,0,1-2.412,2.757,5.605,5.605,0,0,1-3.533,1.1,6.443,6.443,0,0,1-2.2-.388,7.066,7.066,0,0,1-2-1.12,8.459,8.459,0,0,1-1.637-1.723,6.351,6.351,0,0,1-1.012-2.24,16.027,16.027,0,0,1-3.468,3.382,6.819,6.819,0,0,1-3.985,1.314,7.788,7.788,0,0,1-2.563-.409,6.072,6.072,0,0,1-2.046-1.163,5.639,5.639,0,0,1-1.379-1.831,5.4,5.4,0,0,1-.517-2.37,8.47,8.47,0,0,1,.625-3.382q.625-1.443,1.379-2.908a26.726,26.726,0,0,0,1.379-3.21,12.666,12.666,0,0,0,.625-4.243,4.344,4.344,0,0,1,1.551-.948,5.2,5.2,0,0,1,1.723-.3,4.049,4.049,0,0,1,1.551.3,3.865,3.865,0,0,1,1.271.84,3.882,3.882,0,0,1,1.142,2.779Z" transform="translate(-747.053 -874.767)" fill="#ffb714"/>
      <path id="Trazado_26" data-name="Trazado 26" d="M946.246,874.468A11.327,11.327,0,0,1,947,870.5q.753-2.025,1.594-3.835t1.443-3.274a3.389,3.389,0,0,0,.3-2.327,2.972,2.972,0,0,1,1.486-.991,5.79,5.79,0,0,1,1.616-.258,3.957,3.957,0,0,1,1.745.366,3.9,3.9,0,0,1,1.271.969,4.54,4.54,0,0,1,.8,1.336,3.977,3.977,0,0,1,.28,1.422,5.034,5.034,0,0,1-.646,2.283q-.646,1.25-1.421,2.542t-1.422,2.563a5.234,5.234,0,0,0-.646,2.348,3.36,3.36,0,0,0,.086.732,2.654,2.654,0,0,0,.28.732,1.606,1.606,0,0,0,.517.56,1.4,1.4,0,0,0,.8.215,2.5,2.5,0,0,0,1.379-.452,6.2,6.2,0,0,0,1.335-1.228,12.531,12.531,0,0,0,1.228-1.788q.582-1.012,1.1-2.133h2.628q-.733,1.767-1.422,3.727a19.9,19.9,0,0,1-1.68,3.619,9.772,9.772,0,0,1-2.412,2.757,5.605,5.605,0,0,1-3.533,1.1,8.277,8.277,0,0,1-2.671-.452,7.585,7.585,0,0,1-2.391-1.314,6.638,6.638,0,0,1-1.723-2.176A6.716,6.716,0,0,1,946.246,874.468Zm13.873-24.127a3.25,3.25,0,0,1,1.551,1.443,3.724,3.724,0,0,1,.409,1.96,5.229,5.229,0,0,1-.56,2.025,4.375,4.375,0,0,1-1.357,1.616,3.951,3.951,0,0,1-1.982.732,4.26,4.26,0,0,1-2.413-.582,3.275,3.275,0,0,1-1.465-1.465,3.82,3.82,0,0,1-.366-1.917,5.061,5.061,0,0,1,.538-1.96,4.362,4.362,0,0,1,1.314-1.573,3.968,3.968,0,0,1,1.939-.754A4.43,4.43,0,0,1,960.119,850.341Z" transform="translate(-816.74 -848.273)" fill="#ffb714"/>
    </g>
    <g id="Grupo_16" data-name="Grupo 16" transform="translate(609.793 859.888)">
      <path id="Trazado_27" data-name="Trazado 27" d="M992.624,907.717c.022-2.785-2.464-4.707-4.857-5.565a5.988,5.988,0,0,0-4.462.222,6.252,6.252,0,0,0-3.071,3.271c-.561,1.258-1.084,2.534-1.619,3.8l.207-.49a25.118,25.118,0,0,1-1.88,3.765c-.179.281-.378.547-.569.82.411-.588.057-.079-.062.06s-.225.256-.344.379c-.232.242-.527.438-.747.685.052-.059.43-.323.16-.125q-.093.068-.188.132c-.153.1-.31.2-.471.291a2.052,2.052,0,1,0,2.071,3.543c3.511-2,4.946-6,6.427-9.518l-.207.49c.328-.776.639-1.574,1.031-2.321.1-.2.223-.389.346-.578.22-.337-.326.346-.041.056.077-.078.149-.162.228-.239a2.7,2.7,0,0,0,.237-.212q-.418.315-.164.13l.086-.059a4.09,4.09,0,0,1,.641-.342l-.49.207a4.136,4.136,0,0,1,.9-.248l-.545.073a4.211,4.211,0,0,1,1.074,0l-.545-.073a5.365,5.365,0,0,1,1.257.369l-.49-.207a7.458,7.458,0,0,1,.8.4q.185.108.363.227c.072.048.141.1.213.149.257.179-.35-.295-.175-.136.224.2.441.4.646.625s-.267-.379-.139-.185c.038.058.08.113.117.171a3.313,3.313,0,0,1,.231.431l-.207-.49a2.767,2.767,0,0,1,.191.7l-.073-.545a2.992,2.992,0,0,1,.015.329,2.051,2.051,0,0,0,4.1,0Z" transform="translate(-973.704 -901.821)" fill="#ffb714"/>
    </g>
    <g id="Grupo_17" data-name="Grupo 17" transform="translate(620.812 863.219)">
      <path id="Trazado_28" data-name="Trazado 28" d="M1017.685,914c-2.622.086-3.8,2.971-3.688,5.236a10.835,10.835,0,0,0,.772,3.51,8.586,8.586,0,0,0,1.877,3.062,4.117,4.117,0,0,0,4.121,1.138,1.641,1.641,0,0,0-.872-3.165,1.912,1.912,0,0,1-.2.064q-.267.056.133-.005a1.586,1.586,0,0,0-.306,0q.4.065.131.017-.1-.021-.2-.052c-.3-.061.287.174,0,.007-.095-.054-.19-.113-.287-.164q-.217-.151.058.058c-.06-.048-.119-.1-.175-.151-.077-.071-.152-.145-.223-.222q-.073-.078-.142-.159-.166-.2.053.077c-.16-.087-.311-.455-.4-.609-.127-.218-.243-.443-.349-.672q-.05-.108-.1-.216.131.313.028.06c-.042-.113-.087-.225-.128-.339q-.146-.405-.259-.821c-.077-.282-.141-.567-.191-.855-.02-.114-.139-.431-.013-.063a1.813,1.813,0,0,1-.037-.441,6.964,6.964,0,0,1,0-.823q.007-.111.018-.222-.06.414-.015.148c.021-.1.041-.193.067-.289.018-.069.143-.32.122-.379l-.09.208q.04-.09.084-.179.076-.152.167-.3c.025-.041.051-.08.078-.12q.151-.21-.087.11a1.332,1.332,0,0,0,.185-.2c.179-.2-.351.208.008,0l.072-.04q.229-.111-.168.07a1.348,1.348,0,0,1,.156-.041q-.456.048-.195.035a1.641,1.641,0,0,0,0-3.282Z" transform="translate(-1013.99 -913.997)" fill="#ffb714"/>
    </g>
  </g>
</svg>
